<mxfile host="app.diagrams.net" agent="Mozilla/5.0 (X11; Linux x86_64; rv:138.0) Gecko/20100101 Firefox/138.0" version="27.0.6">
  <diagram name="Page-1" id="Xe1Jfhzxk99OiWyexuSZ">
    <mxGraphModel grid="1" page="1" gridSize="10" guides="1" tooltips="1" connect="1" arrows="1" fold="1" pageScale="1" pageWidth="2339" pageHeight="3300" math="0" shadow="0">
      <root>
        <mxCell id="0" />
        <mxCell id="1" parent="0" />
        <mxCell id="LBhhKxa6DIj_pUaNA_x_-1" value="&lt;span style=&quot;color: rgb(0, 127, 255);&quot;&gt;&amp;lt;&amp;lt;Class&amp;gt;&amp;gt;&lt;/span&gt;&lt;div&gt;EqualInstructionWatermarker&lt;/div&gt;" style="swimlane;fontStyle=1;align=center;verticalAlign=top;childLayout=stackLayout;horizontal=1;startSize=40;horizontalStack=0;resizeParent=1;resizeParentMax=0;resizeLast=0;collapsible=1;marginBottom=0;whiteSpace=wrap;html=1;fontFamily=JetBrains Mono;fontSource=https%3A%2F%2Ffonts.googleapis.com%2Fcss%3Ffamily%3DJetBrains%2BMono;rounded=1;fillColor=#F2F2F2;swimlaneFillColor=#F2F2F2;swimlaneLine=1;strokeColor=#7B8691;" vertex="1" parent="1">
          <mxGeometry x="1195.01" y="718" width="240" height="70" as="geometry">
            <mxRectangle x="530" y="920" width="110" height="30" as="alternateBounds" />
          </mxGeometry>
        </mxCell>
        <mxCell id="LBhhKxa6DIj_pUaNA_x_-2" value="&lt;div align=&quot;center&quot;&gt;&lt;b&gt;&lt;font style=&quot;font-size: 14px;&quot;&gt;...&lt;/font&gt;&lt;/b&gt;&lt;/div&gt;" style="text;strokeColor=none;fillColor=none;align=center;verticalAlign=top;spacingLeft=4;spacingRight=4;overflow=hidden;rotatable=0;points=[[0,0.5],[1,0.5]];portConstraint=eastwest;whiteSpace=wrap;html=1;fontFamily=JetBrains Mono;fontSource=https%3A%2F%2Ffonts.googleapis.com%2Fcss%3Ffamily%3DJetBrains%2BMono;rounded=1;swimlaneLine=1;" vertex="1" parent="LBhhKxa6DIj_pUaNA_x_-1">
          <mxGeometry y="40" width="240" height="30" as="geometry" />
        </mxCell>
        <mxCell id="LBhhKxa6DIj_pUaNA_x_-3" value="&lt;span style=&quot;color: rgb(153, 51, 255);&quot;&gt;&amp;lt;&amp;lt;Interface&amp;gt;&amp;gt;&lt;/span&gt;&lt;div&gt;Watermarker&lt;/div&gt;" style="swimlane;fontStyle=1;align=center;verticalAlign=top;childLayout=stackLayout;horizontal=1;startSize=40;horizontalStack=0;resizeParent=1;resizeParentMax=0;resizeLast=0;collapsible=1;marginBottom=0;whiteSpace=wrap;html=1;fontFamily=JetBrains Mono;fontSource=https%3A%2F%2Ffonts.googleapis.com%2Fcss%3Ffamily%3DJetBrains%2BMono;rounded=1;fillColor=#F2F2F2;swimlaneFillColor=#F2F2F2;swimlaneLine=1;strokeColor=#7B8691;" vertex="1" parent="1">
          <mxGeometry x="1100.01" y="418" width="390" height="190" as="geometry">
            <mxRectangle x="530" y="920" width="110" height="30" as="alternateBounds" />
          </mxGeometry>
        </mxCell>
        <mxCell id="LBhhKxa6DIj_pUaNA_x_-4" value="-&amp;gt; METHOD_NAME: str" style="text;strokeColor=none;fillColor=none;align=left;verticalAlign=top;spacingLeft=4;spacingRight=4;overflow=hidden;rotatable=0;points=[[0,0.5],[1,0.5]];portConstraint=eastwest;whiteSpace=wrap;html=1;fontFamily=JetBrains Mono;fontSource=https%3A%2F%2Ffonts.googleapis.com%2Fcss%3Ffamily%3DJetBrains%2BMono;rounded=1;swimlaneLine=1;" vertex="1" parent="LBhhKxa6DIj_pUaNA_x_-3">
          <mxGeometry y="40" width="390" height="30" as="geometry" />
        </mxCell>
        <mxCell id="LBhhKxa6DIj_pUaNA_x_-5" value="-&amp;gt; SUPPORTED_ARCHS: Set[Architecture]" style="text;strokeColor=none;fillColor=none;align=left;verticalAlign=top;spacingLeft=4;spacingRight=4;overflow=hidden;rotatable=0;points=[[0,0.5],[1,0.5]];portConstraint=eastwest;whiteSpace=wrap;html=1;fontFamily=JetBrains Mono;fontSource=https%3A%2F%2Ffonts.googleapis.com%2Fcss%3Ffamily%3DJetBrains%2BMono;rounded=1;swimlaneLine=1;" vertex="1" parent="LBhhKxa6DIj_pUaNA_x_-3">
          <mxGeometry y="70" width="390" height="30" as="geometry" />
        </mxCell>
        <mxCell id="LBhhKxa6DIj_pUaNA_x_-6" value="&lt;span style=&quot;font-size:125%;line-height:1em&quot;&gt;&lt;span style=&quot;color: rgb(0, 204, 0);&quot;&gt;⦿&lt;/span&gt;&lt;/span&gt; encode(&lt;span style=&quot;white-space: pre-wrap&quot;&gt;txt: TextSection, message: bytes&lt;/span&gt;) -&amp;gt; bytes" style="text;strokeColor=none;fillColor=none;align=left;verticalAlign=top;spacingLeft=4;spacingRight=4;overflow=hidden;rotatable=0;points=[[0,0.5],[1,0.5]];portConstraint=eastwest;whiteSpace=wrap;html=1;fontFamily=JetBrains Mono;fontSource=https%3A%2F%2Ffonts.googleapis.com%2Fcss%3Ffamily%3DJetBrains%2BMono;rounded=1;swimlaneLine=1;" vertex="1" parent="LBhhKxa6DIj_pUaNA_x_-3">
          <mxGeometry y="100" width="390" height="30" as="geometry" />
        </mxCell>
        <mxCell id="LBhhKxa6DIj_pUaNA_x_-7" value="&lt;span style=&quot;font-size:125%;line-height:1em&quot;&gt;&lt;span style=&quot;color: rgb(0, 204, 0);&quot;&gt;⦿&lt;/span&gt;&lt;/span&gt; decode(&lt;span style=&quot;white-space: pre-wrap&quot;&gt;txt: TextSection&lt;/span&gt;) -&amp;gt; str" style="text;strokeColor=none;fillColor=none;align=left;verticalAlign=top;spacingLeft=4;spacingRight=4;overflow=hidden;rotatable=0;points=[[0,0.5],[1,0.5]];portConstraint=eastwest;whiteSpace=wrap;html=1;fontFamily=JetBrains Mono;fontSource=https%3A%2F%2Ffonts.googleapis.com%2Fcss%3Ffamily%3DJetBrains%2BMono;rounded=1;swimlaneLine=1;" vertex="1" parent="LBhhKxa6DIj_pUaNA_x_-3">
          <mxGeometry y="130" width="390" height="30" as="geometry" />
        </mxCell>
        <mxCell id="LBhhKxa6DIj_pUaNA_x_-8" value="&lt;span style=&quot;font-size:125%;line-height:1em&quot;&gt;&lt;span style=&quot;color: rgb(0, 204, 0);&quot;&gt;⦿&lt;/span&gt;&lt;/span&gt; get_nbits(&lt;span style=&quot;white-space: pre-wrap&quot;&gt;txt: TextSection&lt;/span&gt;) -&amp;gt; int:" style="text;strokeColor=none;fillColor=none;align=left;verticalAlign=top;spacingLeft=4;spacingRight=4;overflow=hidden;rotatable=0;points=[[0,0.5],[1,0.5]];portConstraint=eastwest;whiteSpace=wrap;html=1;fontFamily=JetBrains Mono;fontSource=https%3A%2F%2Ffonts.googleapis.com%2Fcss%3Ffamily%3DJetBrains%2BMono;rounded=1;swimlaneLine=1;" vertex="1" parent="LBhhKxa6DIj_pUaNA_x_-3">
          <mxGeometry y="160" width="390" height="30" as="geometry" />
        </mxCell>
        <mxCell id="LBhhKxa6DIj_pUaNA_x_-9" style="rounded=1;orthogonalLoop=1;jettySize=auto;html=1;edgeStyle=elbowEdgeStyle;elbow=vertical;jumpStyle=none;endArrow=classicThin;endFill=1;startArrow=diamond;startFill=0;strokeWidth=2;sourcePerimeterSpacing=0;curved=0;" edge="1" parent="1" source="LBhhKxa6DIj_pUaNA_x_-10">
          <mxGeometry relative="1" as="geometry">
            <mxPoint x="1000.01" y="448.0013793103453" as="sourcePoint" />
            <mxPoint x="1100.01" y="448" as="targetPoint" />
            <Array as="points">
              <mxPoint x="1100.01" y="448" />
            </Array>
          </mxGeometry>
        </mxCell>
        <mxCell id="LBhhKxa6DIj_pUaNA_x_-10" value="&lt;span style=&quot;color: rgb(0, 153, 0);&quot;&gt;&amp;lt;&amp;lt;Class&amp;gt;&amp;gt;&lt;/span&gt;&lt;div&gt;WatermarkService&lt;/div&gt;" style="swimlane;fontStyle=1;align=center;verticalAlign=top;childLayout=stackLayout;horizontal=1;startSize=40;horizontalStack=0;resizeParent=1;resizeParentMax=0;resizeLast=0;collapsible=1;marginBottom=0;whiteSpace=wrap;html=1;fontFamily=JetBrains Mono;fontSource=https%3A%2F%2Ffonts.googleapis.com%2Fcss%3Ffamily%3DJetBrains%2BMono;rounded=1;fillColor=#F2F2F2;swimlaneFillColor=#F2F2F2;swimlaneLine=1;strokeColor=#7B8691;" vertex="1" parent="1">
          <mxGeometry x="575.88" y="418" width="440" height="280" as="geometry">
            <mxRectangle x="530" y="920" width="110" height="30" as="alternateBounds" />
          </mxGeometry>
        </mxCell>
        <mxCell id="LBhhKxa6DIj_pUaNA_x_-11" value="-&amp;gt; _section : TextSection" style="text;strokeColor=none;fillColor=none;align=left;verticalAlign=top;spacingLeft=4;spacingRight=4;overflow=hidden;rotatable=0;points=[[0,0.5],[1,0.5]];portConstraint=eastwest;whiteSpace=wrap;html=1;fontFamily=JetBrains Mono;fontSource=https%3A%2F%2Ffonts.googleapis.com%2Fcss%3Ffamily%3DJetBrains%2BMono;rounded=1;swimlaneLine=1;" vertex="1" parent="LBhhKxa6DIj_pUaNA_x_-10">
          <mxGeometry y="40" width="440" height="30" as="geometry" />
        </mxCell>
        <mxCell id="LBhhKxa6DIj_pUaNA_x_-12" value="-&amp;gt; _strategy : Watermarker" style="text;strokeColor=none;fillColor=none;align=left;verticalAlign=top;spacingLeft=4;spacingRight=4;overflow=hidden;rotatable=0;points=[[0,0.5],[1,0.5]];portConstraint=eastwest;whiteSpace=wrap;html=1;fontFamily=JetBrains Mono;fontSource=https%3A%2F%2Ffonts.googleapis.com%2Fcss%3Ffamily%3DJetBrains%2BMono;rounded=1;swimlaneLine=1;" vertex="1" parent="LBhhKxa6DIj_pUaNA_x_-10">
          <mxGeometry y="70" width="440" height="30" as="geometry" />
        </mxCell>
        <mxCell id="LBhhKxa6DIj_pUaNA_x_-13" value="&lt;span style=&quot;font-size:125%;line-height:1em&quot;&gt;&lt;span style=&quot;color: rgb(0, 204, 0);&quot;&gt;⦿&lt;/span&gt;&lt;/span&gt; __init__(filepath, &lt;span style=&quot;color: light-dark(rgb(119, 118, 123), rgb(237, 237, 237));&quot;&gt;strategy: Watermarker&lt;/span&gt;)" style="text;strokeColor=none;fillColor=none;align=left;verticalAlign=top;spacingLeft=4;spacingRight=4;overflow=hidden;rotatable=0;points=[[0,0.5],[1,0.5]];portConstraint=eastwest;whiteSpace=wrap;html=1;fontFamily=JetBrains Mono;fontSource=https%3A%2F%2Ffonts.googleapis.com%2Fcss%3Ffamily%3DJetBrains%2BMono;rounded=1;swimlaneLine=1;" vertex="1" parent="LBhhKxa6DIj_pUaNA_x_-10">
          <mxGeometry y="100" width="440" height="30" as="geometry" />
        </mxCell>
        <mxCell id="LBhhKxa6DIj_pUaNA_x_-14" value="&lt;span style=&quot;font-size:125%;line-height:1em&quot;&gt;&lt;span style=&quot;color: rgb(0, 204, 0);&quot;&gt;⦿&lt;/span&gt;&lt;/span&gt; &lt;span style=&quot;white-space: pre-wrap&quot;&gt;set_strategy(strategy: Watermarker)&lt;/span&gt;" style="text;strokeColor=none;fillColor=none;align=left;verticalAlign=top;spacingLeft=4;spacingRight=4;overflow=hidden;rotatable=0;points=[[0,0.5],[1,0.5]];portConstraint=eastwest;whiteSpace=wrap;html=1;fontFamily=JetBrains Mono;fontSource=https%3A%2F%2Ffonts.googleapis.com%2Fcss%3Ffamily%3DJetBrains%2BMono;rounded=1;swimlaneLine=1;" vertex="1" parent="LBhhKxa6DIj_pUaNA_x_-10">
          <mxGeometry y="130" width="440" height="30" as="geometry" />
        </mxCell>
        <mxCell id="LBhhKxa6DIj_pUaNA_x_-15" value="&lt;span style=&quot;font-size:125%;line-height:1em&quot;&gt;&lt;span style=&quot;color: rgb(0, 204, 0);&quot;&gt;⦿&lt;/span&gt;&lt;/span&gt; &lt;span style=&quot;white-space: pre-wrap&quot;&gt;set_file(filepath: str)&lt;/span&gt;" style="text;strokeColor=none;fillColor=none;align=left;verticalAlign=top;spacingLeft=4;spacingRight=4;overflow=hidden;rotatable=0;points=[[0,0.5],[1,0.5]];portConstraint=eastwest;whiteSpace=wrap;html=1;fontFamily=JetBrains Mono;fontSource=https%3A%2F%2Ffonts.googleapis.com%2Fcss%3Ffamily%3DJetBrains%2BMono;rounded=1;swimlaneLine=1;" vertex="1" parent="LBhhKxa6DIj_pUaNA_x_-10">
          <mxGeometry y="160" width="440" height="30" as="geometry" />
        </mxCell>
        <mxCell id="LBhhKxa6DIj_pUaNA_x_-16" value="&lt;span style=&quot;font-size:125%;line-height:1em&quot;&gt;&lt;span style=&quot;color: rgb(0, 204, 0);&quot;&gt;⦿&lt;/span&gt;&lt;/span&gt; get_capacity(strategy: Watermarker) -&amp;gt; int" style="text;strokeColor=none;fillColor=none;align=left;verticalAlign=top;spacingLeft=4;spacingRight=4;overflow=hidden;rotatable=0;points=[[0,0.5],[1,0.5]];portConstraint=eastwest;whiteSpace=wrap;html=1;fontFamily=JetBrains Mono;fontSource=https%3A%2F%2Ffonts.googleapis.com%2Fcss%3Ffamily%3DJetBrains%2BMono;rounded=1;swimlaneLine=1;" vertex="1" parent="LBhhKxa6DIj_pUaNA_x_-10">
          <mxGeometry y="190" width="440" height="30" as="geometry" />
        </mxCell>
        <mxCell id="LBhhKxa6DIj_pUaNA_x_-17" value="&lt;span style=&quot;font-size:125%;line-height:1em&quot;&gt;&lt;span style=&quot;color: rgb(0, 204, 0);&quot;&gt;⦿&lt;/span&gt;&lt;/span&gt; encode(message, strategy: Watermarker, dst) -&amp;gt; str" style="text;align=left;verticalAlign=top;spacingLeft=4;spacingRight=4;overflow=hidden;rotatable=0;points=[[0,0.5],[1,0.5]];portConstraint=eastwest;whiteSpace=wrap;html=1;fontFamily=JetBrains Mono;fontSource=https%3A%2F%2Ffonts.googleapis.com%2Fcss%3Ffamily%3DJetBrains%2BMono;rounded=1;swimlaneLine=1;" vertex="1" parent="LBhhKxa6DIj_pUaNA_x_-10">
          <mxGeometry y="220" width="440" height="30" as="geometry" />
        </mxCell>
        <mxCell id="LBhhKxa6DIj_pUaNA_x_-18" value="&lt;span style=&quot;font-size:125%;line-height:1em&quot;&gt;&lt;span style=&quot;color: rgb(0, 204, 0);&quot;&gt;⦿&lt;/span&gt;&lt;/span&gt; decode(strategy: Watermarker) -&amp;gt; str" style="text;align=left;verticalAlign=top;spacingLeft=4;spacingRight=4;overflow=hidden;rotatable=0;points=[[0,0.5],[1,0.5]];portConstraint=eastwest;whiteSpace=wrap;html=1;fontFamily=JetBrains Mono;fontSource=https%3A%2F%2Ffonts.googleapis.com%2Fcss%3Ffamily%3DJetBrains%2BMono;rounded=1;swimlaneLine=1;" vertex="1" parent="LBhhKxa6DIj_pUaNA_x_-10">
          <mxGeometry y="250" width="440" height="30" as="geometry" />
        </mxCell>
        <mxCell id="LBhhKxa6DIj_pUaNA_x_-19" value="&lt;span style=&quot;color: rgb(0, 127, 255);&quot;&gt;&amp;lt;&amp;lt;Class&amp;gt;&amp;gt;&lt;/span&gt;&lt;div&gt;EqualInstructionWatermarker&lt;/div&gt;" style="swimlane;fontStyle=1;align=center;verticalAlign=top;childLayout=stackLayout;horizontal=1;startSize=40;horizontalStack=0;resizeParent=1;resizeParentMax=0;resizeLast=0;collapsible=1;marginBottom=0;whiteSpace=wrap;html=1;fontFamily=JetBrains Mono;fontSource=https%3A%2F%2Ffonts.googleapis.com%2Fcss%3Ffamily%3DJetBrains%2BMono;rounded=1;fillColor=#F2F2F2;swimlaneFillColor=#F2F2F2;swimlaneLine=1;strokeColor=#7B8691;" vertex="1" parent="1">
          <mxGeometry x="1185.01" y="708" width="240" height="70" as="geometry">
            <mxRectangle x="530" y="920" width="110" height="30" as="alternateBounds" />
          </mxGeometry>
        </mxCell>
        <mxCell id="LBhhKxa6DIj_pUaNA_x_-20" value="&lt;div align=&quot;center&quot;&gt;&lt;b&gt;&lt;font style=&quot;font-size: 14px;&quot;&gt;...&lt;/font&gt;&lt;/b&gt;&lt;/div&gt;" style="text;strokeColor=none;fillColor=none;align=center;verticalAlign=top;spacingLeft=4;spacingRight=4;overflow=hidden;rotatable=0;points=[[0,0.5],[1,0.5]];portConstraint=eastwest;whiteSpace=wrap;html=1;fontFamily=JetBrains Mono;fontSource=https%3A%2F%2Ffonts.googleapis.com%2Fcss%3Ffamily%3DJetBrains%2BMono;rounded=1;swimlaneLine=1;" vertex="1" parent="LBhhKxa6DIj_pUaNA_x_-19">
          <mxGeometry y="40" width="240" height="30" as="geometry" />
        </mxCell>
        <mxCell id="LBhhKxa6DIj_pUaNA_x_-21" value="" style="edgeStyle=orthogonalEdgeStyle;rounded=0;orthogonalLoop=1;jettySize=auto;html=1;strokeWidth=2;dashed=1;endArrow=block;endFill=0;" edge="1" parent="1" source="LBhhKxa6DIj_pUaNA_x_-22" target="LBhhKxa6DIj_pUaNA_x_-3">
          <mxGeometry relative="1" as="geometry">
            <Array as="points">
              <mxPoint x="1295.01" y="608" />
              <mxPoint x="1295.01" y="608" />
            </Array>
          </mxGeometry>
        </mxCell>
        <mxCell id="LBhhKxa6DIj_pUaNA_x_-22" value="&lt;span style=&quot;color: rgb(0, 127, 255);&quot;&gt;&amp;lt;&amp;lt;Class&amp;gt;&amp;gt;&lt;/span&gt;&lt;div&gt;EqualInstructionWatermarker&lt;/div&gt;" style="swimlane;fontStyle=1;align=center;verticalAlign=top;childLayout=stackLayout;horizontal=1;startSize=40;horizontalStack=0;resizeParent=1;resizeParentMax=0;resizeLast=0;collapsible=1;marginBottom=0;whiteSpace=wrap;html=1;fontFamily=JetBrains Mono;fontSource=https%3A%2F%2Ffonts.googleapis.com%2Fcss%3Ffamily%3DJetBrains%2BMono;rounded=1;fillColor=#F2F2F2;swimlaneFillColor=#F2F2F2;swimlaneLine=1;strokeColor=#7B8691;" vertex="1" parent="1">
          <mxGeometry x="1175.01" y="698" width="240" height="70" as="geometry">
            <mxRectangle x="530" y="920" width="110" height="30" as="alternateBounds" />
          </mxGeometry>
        </mxCell>
        <mxCell id="LBhhKxa6DIj_pUaNA_x_-23" value="&lt;div align=&quot;center&quot;&gt;&lt;b&gt;&lt;font style=&quot;font-size: 14px;&quot;&gt;...&lt;/font&gt;&lt;/b&gt;&lt;/div&gt;" style="text;strokeColor=none;fillColor=none;align=center;verticalAlign=top;spacingLeft=4;spacingRight=4;overflow=hidden;rotatable=0;points=[[0,0.5],[1,0.5]];portConstraint=eastwest;whiteSpace=wrap;html=1;fontFamily=JetBrains Mono;fontSource=https%3A%2F%2Ffonts.googleapis.com%2Fcss%3Ffamily%3DJetBrains%2BMono;rounded=1;swimlaneLine=1;" vertex="1" parent="LBhhKxa6DIj_pUaNA_x_-22">
          <mxGeometry y="40" width="240" height="30" as="geometry" />
        </mxCell>
        <mxCell id="LBhhKxa6DIj_pUaNA_x_-24" value="" style="edgeStyle=orthogonalEdgeStyle;rounded=0;orthogonalLoop=1;jettySize=auto;html=1;" edge="1" parent="1" source="LBhhKxa6DIj_pUaNA_x_-25" target="LBhhKxa6DIj_pUaNA_x_-10">
          <mxGeometry relative="1" as="geometry" />
        </mxCell>
        <mxCell id="LBhhKxa6DIj_pUaNA_x_-25" value="&lt;div&gt;from ... import EqualInstructionWatermarker&lt;br&gt;from my_water import MyWatermarker&lt;br&gt;&lt;br&gt;&lt;/div&gt;&lt;div&gt;ws = WatermarkService(file.elf)&lt;/div&gt;&lt;div&gt;ws.encode(&quot;secret&quot;, EqualInstructionWatermarker())&lt;br&gt;&lt;br&gt;# using our own strategy:&lt;br&gt;ws.encode(&quot;secret&quot;, MyWatermarker())&lt;/div&gt;&lt;div&gt;&lt;br&gt;&lt;/div&gt;" style="shape=note;strokeWidth=2;fontSize=14;size=20;whiteSpace=wrap;html=1;fillColor=#fff2cc;strokeColor=#d6b656;fontColor=#666600;fontFamily=JetBrains Mono;fontSource=https%3A%2F%2Ffonts.googleapis.com%2Fcss%3Ffamily%3DJetBrains%2BMono;align=left;" vertex="1" parent="1">
          <mxGeometry x="570" y="786" width="451.75" height="160" as="geometry" />
        </mxCell>
        <mxCell id="LBhhKxa6DIj_pUaNA_x_-26" value="&lt;div&gt;Concrete Strategies&lt;/div&gt;" style="text;html=1;align=center;verticalAlign=middle;whiteSpace=wrap;rounded=0;fontFamily=JetBrains Mono;fontSource=https%3A%2F%2Ffonts.googleapis.com%2Fcss%3Ffamily%3DJetBrains%2BMono;fontStyle=1;fontSize=16;" vertex="1" parent="1">
          <mxGeometry x="1170.01" y="798" width="250" height="30" as="geometry" />
        </mxCell>
        <mxCell id="LBhhKxa6DIj_pUaNA_x_-27" value="Context" style="text;html=1;align=center;verticalAlign=middle;whiteSpace=wrap;rounded=0;fontFamily=JetBrains Mono;fontSource=https%3A%2F%2Ffonts.googleapis.com%2Fcss%3Ffamily%3DJetBrains%2BMono;fontStyle=1;fontSize=16;" vertex="1" parent="1">
          <mxGeometry x="670.87" y="380" width="250" height="30" as="geometry" />
        </mxCell>
      </root>
    </mxGraphModel>
  </diagram>
</mxfile>
